<?xml version="1.0" encoding="UTF-8" standalone="no"?>
<!-- Created with Inkscape (http://www.inkscape.org/) -->

<svg
   xmlns:dc="http://purl.org/dc/elements/1.1/"
   xmlns:cc="http://creativecommons.org/ns#"
   xmlns:rdf="http://www.w3.org/1999/02/22-rdf-syntax-ns#"
   xmlns:svg="http://www.w3.org/2000/svg"
   xmlns="http://www.w3.org/2000/svg"
   xmlns:sodipodi="http://sodipodi.sourceforge.net/DTD/sodipodi-0.dtd"
   xmlns:inkscape="http://www.inkscape.org/namespaces/inkscape"
   width="443.85715"
   height="342.42856"
   id="svg2"
   version="1.1"
   inkscape:version="0.48.4 r9939"
   sodipodi:docname="drawing.svg">
  <defs
     id="defs4" />
  <sodipodi:namedview
     id="base"
     pagecolor="#ffffff"
     bordercolor="#666666"
     borderopacity="1.0"
     inkscape:pageopacity="0.0"
     inkscape:pageshadow="2"
     inkscape:zoom="0.49497475"
     inkscape:cx="63.859767"
     inkscape:cy="23.234993"
     inkscape:document-units="mm"
     inkscape:current-layer="layer2"
     showgrid="false"
     inkscape:window-width="1024"
     inkscape:window-height="552"
     inkscape:window-x="0"
     inkscape:window-y="0"
     inkscape:window-maximized="1"
     units="cm"
     fit-margin-top="0"
     fit-margin-left="0"
     fit-margin-right="0"
     fit-margin-bottom="0" />
  <metadata
     id="metadata7">
    <rdf:RDF>
      <cc:Work
         rdf:about="">
        <dc:format>image/svg+xml</dc:format>
        <dc:type
           rdf:resource="http://purl.org/dc/dcmitype/StillImage" />
        <dc:title />
      </cc:Work>
    </rdf:RDF>
  </metadata>
  <g
     inkscape:label="Layer 1"
     inkscape:groupmode="layer"
     id="layer1"
     style="display:inline"
     transform="translate(-170.92857,-376.14799)">
    <rect
       style="fill:none;stroke:#000000;stroke-width:1.03285158;stroke-miterlimit:8.5;stroke-opacity:1;stroke-dasharray:none"
       id="rect2985"
       width="442.82431"
       height="341.39572"
       x="171.44499"
       y="376.66434"
       ry="4.2376852" />
    <rect
       style="fill:#00ff00;fill-opacity:1;fill-rule:evenodd;stroke:#000000;stroke-width:1.15022647;stroke-miterlimit:8.5;stroke-opacity:1;stroke-dasharray:none"
       id="rect2987"
       width="68.540154"
       height="147.33205"
       x="174.83151"
       y="563.52344"
       ry="5.266695" />
    <rect
       style="fill:#00ff00;fill-opacity:1;fill-rule:evenodd;stroke:#000000;stroke-width:0.87994725;stroke-miterlimit:8.5;stroke-opacity:1;stroke-dasharray:none"
       id="rect2989"
       width="24.363714"
       height="49.617527"
       x="183.78775"
       y="507.24692"
       ry="6.5035057" />
    <rect
       style="fill:#ff0000;fill-opacity:1;fill-rule:evenodd;stroke:#000000;stroke-width:1;stroke-miterlimit:8.5;stroke-opacity:1;stroke-dasharray:none"
       id="rect3025-1"
       width="87.88327"
       height="42.426407"
       x="414.66763"
       y="456.37219"
       ry="3.9721041" />
    <rect
       style="fill:#ff0000;fill-opacity:1;fill-rule:evenodd;stroke:#000000;stroke-width:1;stroke-miterlimit:8.5;stroke-opacity:1;stroke-dasharray:none"
       id="rect3025-2"
       width="87.88327"
       height="42.426407"
       x="266.17517"
       y="625.06769"
       ry="3.9721041" />
    <rect
       style="fill:#ff0000;fill-opacity:1;fill-rule:evenodd;stroke:#000000;stroke-width:1;stroke-miterlimit:8.5;stroke-opacity:1;stroke-dasharray:none"
       id="rect3025-25"
       width="87.88327"
       height="42.426407"
       x="368.20059"
       y="625.06769"
       ry="3.9721041" />
    <rect
       style="fill:#ff0000;fill-opacity:1;fill-rule:evenodd;stroke:#000000;stroke-width:1;stroke-miterlimit:8.5;stroke-opacity:1;stroke-dasharray:none"
       id="rect3025-0"
       width="87.88327"
       height="42.426407"
       x="467.19556"
       y="624.0575"
       ry="3.9721041" />
    <rect
       style="fill:#00ff00;fill-opacity:1;fill-rule:evenodd;stroke:#000000;stroke-width:0.87994725;stroke-miterlimit:8.5;stroke-opacity:1;stroke-dasharray:none"
       id="rect2989-3"
       width="24.363714"
       height="49.617527"
       x="184.37947"
       y="448.57144"
       ry="6.5035057" />
    <rect
       style="fill:#00ff00;fill-opacity:1;fill-rule:evenodd;stroke:#000000;stroke-width:0.87994725;stroke-miterlimit:8.5;stroke-opacity:1;stroke-dasharray:none"
       id="rect2989-33"
       width="24.363714"
       height="49.617527"
       x="183.78773"
       y="388.08481"
       ry="6.5035057" />
    <path
       sodipodi:type="arc"
       style="fill:#0000ff;fill-opacity:1;fill-rule:evenodd;stroke:#000000;stroke-width:1;stroke-miterlimit:8.5;stroke-opacity:1;stroke-dasharray:none"
       id="path3091"
       sodipodi:cx="336.88586"
       sodipodi:cy="654.36206"
       sodipodi:rx="8.586297"
       sodipodi:ry="8.0812206"
       d="m 345.47216,654.36206 c 0,4.46314 -3.84421,8.08122 -8.5863,8.08122 -4.74208,0 -8.58629,-3.61808 -8.58629,-8.08122 0,-4.46313 3.84421,-8.08122 8.58629,-8.08122 4.74209,0 8.5863,3.61809 8.5863,8.08122 z"
       transform="translate(4.0406102,-6.0609153)" />
    <path
       transform="translate(106.57111,-6.0608961)"
       sodipodi:type="arc"
       style="fill:#0000ff;fill-opacity:1;fill-rule:evenodd;stroke:#000000;stroke-width:1;stroke-miterlimit:8.5;stroke-opacity:1;stroke-dasharray:none"
       id="path3091-4"
       sodipodi:cx="336.88586"
       sodipodi:cy="654.36206"
       sodipodi:rx="8.586297"
       sodipodi:ry="8.0812206"
       d="m 345.47216,654.36206 c 0,4.46314 -3.84421,8.08122 -8.5863,8.08122 -4.74208,0 -8.58629,-3.61808 -8.58629,-8.08122 0,-4.46313 3.84421,-8.08122 8.58629,-8.08122 4.74209,0 8.5863,3.61809 8.5863,8.08122 z" />
    <path
       transform="translate(201.52544,-9.0913537)"
       sodipodi:type="arc"
       style="fill:#0000ff;fill-opacity:1;fill-rule:evenodd;stroke:#000000;stroke-width:1;stroke-miterlimit:8.5;stroke-opacity:1;stroke-dasharray:none"
       id="path3091-6"
       sodipodi:cx="336.88586"
       sodipodi:cy="654.36206"
       sodipodi:rx="8.586297"
       sodipodi:ry="8.0812206"
       d="m 345.47216,654.36206 c 0,4.46314 -3.84421,8.08122 -8.5863,8.08122 -4.74208,0 -8.58629,-3.61808 -8.58629,-8.08122 0,-4.46313 3.84421,-8.08122 8.58629,-8.08122 4.74209,0 8.5863,3.61809 8.5863,8.08122 z" />
    <path
       transform="translate(153.03812,-174.75637)"
       sodipodi:type="arc"
       style="fill:#0000ff;fill-opacity:1;fill-rule:evenodd;stroke:#000000;stroke-width:1;stroke-miterlimit:8.5;stroke-opacity:1;stroke-dasharray:none"
       id="path3091-8"
       sodipodi:cx="336.88586"
       sodipodi:cy="654.36206"
       sodipodi:rx="8.586297"
       sodipodi:ry="8.0812206"
       d="m 345.47216,654.36206 c 0,4.46314 -3.84421,8.08122 -8.5863,8.08122 -4.74208,0 -8.58629,-3.61808 -8.58629,-8.08122 0,-4.46313 3.84421,-8.08122 8.58629,-8.08122 4.74209,0 8.5863,3.61809 8.5863,8.08122 z" />
    <rect
       style="fill:#ffff00;fill-opacity:1;fill-rule:evenodd;stroke:#000000;stroke-width:1;stroke-miterlimit:8.5;stroke-opacity:1;stroke-dasharray:none"
       id="rect3132-3"
       width="44.446712"
       height="10.101525"
       x="438.40622"
       y="441.21988"
       ry="3.9721041" />
    <rect
       style="fill:#ffff00;fill-opacity:1;fill-rule:evenodd;stroke:#000000;stroke-width:1;stroke-miterlimit:8.5;stroke-opacity:1;stroke-dasharray:none"
       id="rect3132-4"
       width="44.446712"
       height="10.101525"
       x="498.61798"
       y="606.17059"
       ry="3.9721041" />
    <rect
       style="fill:#ffff00;fill-opacity:1;fill-rule:evenodd;stroke:#000000;stroke-width:1;stroke-miterlimit:8.5;stroke-opacity:1;stroke-dasharray:none"
       id="rect3132-8"
       width="44.446712"
       height="10.101525"
       x="386.8884"
       y="607.89508"
       ry="3.9721041" />
    <rect
       style="fill:#ffff00;fill-opacity:1;fill-rule:evenodd;stroke:#000000;stroke-width:1;stroke-miterlimit:8.5;stroke-opacity:1;stroke-dasharray:none"
       id="rect3132-43"
       width="44.446712"
       height="10.101525"
       x="286.88336"
       y="606.88489"
       ry="3.9721041" />
    <rect
       style="fill:#ffff00;fill-opacity:1;fill-rule:evenodd;stroke:#000000;stroke-width:1;stroke-miterlimit:8.5;stroke-opacity:1;stroke-dasharray:none;display:inline"
       id="rect3132-4-1"
       width="44.446712"
       height="10.101525"
       x="498.19955"
       y="592.0285"
       ry="3.9721041" />
    <g
       id="g3818"
       transform="matrix(0.84264479,0,0,1,98.396484,-68.989847)">
      <path
         d="m 345.47216,654.36206 c 0,4.46314 -3.84421,8.08122 -8.5863,8.08122 -4.74208,0 -8.58629,-3.61808 -8.58629,-8.08122 0,-4.46313 3.84421,-8.08122 8.58629,-8.08122 4.74209,0 8.5863,3.61809 8.5863,8.08122 z"
         sodipodi:ry="8.0812206"
         sodipodi:rx="8.586297"
         sodipodi:cy="654.36206"
         sodipodi:cx="336.88586"
         id="path3091-8-0-2"
         style="fill:#000000;fill-opacity:1;fill-rule:evenodd;stroke:#000000;stroke-width:1;stroke-miterlimit:8.5;stroke-opacity:1;stroke-dasharray:none;display:inline"
         sodipodi:type="arc"
         transform="matrix(0.83786324,0,0,0.83786324,219.47883,28.02483)" />
      <path
         d="m 345.47216,654.36206 c 0,4.46314 -3.84421,8.08122 -8.5863,8.08122 -4.74208,0 -8.58629,-3.61808 -8.58629,-8.08122 0,-4.46313 3.84421,-8.08122 8.58629,-8.08122 4.74209,0 8.5863,3.61809 8.5863,8.08122 z"
         sodipodi:ry="8.0812206"
         sodipodi:rx="8.586297"
         sodipodi:cy="654.36206"
         sodipodi:cx="336.88586"
         id="path3091-8-0-9-51"
         style="fill:#000000;fill-opacity:1;fill-rule:evenodd;stroke:#000000;stroke-width:1;stroke-miterlimit:8.5;stroke-opacity:1;stroke-dasharray:none;display:inline"
         sodipodi:type="arc"
         transform="matrix(0.83786324,0,0,0.83786324,239.13019,28.02483)" />
      <path
         d="m 345.47216,654.36206 c 0,4.46314 -3.84421,8.08122 -8.5863,8.08122 -4.74208,0 -8.58629,-3.61808 -8.58629,-8.08122 0,-4.46313 3.84421,-8.08122 8.58629,-8.08122 4.74209,0 8.5863,3.61809 8.5863,8.08122 z"
         sodipodi:ry="8.0812206"
         sodipodi:rx="8.586297"
         sodipodi:cy="654.36206"
         sodipodi:cx="336.88586"
         id="path3091-8-0-09-1"
         style="fill:#000000;fill-opacity:1;fill-rule:evenodd;stroke:#000000;stroke-width:1;stroke-miterlimit:8.5;stroke-opacity:1;stroke-dasharray:none;display:inline"
         sodipodi:type="arc"
         transform="matrix(0.83786324,0,0,0.83786324,258.78159,28.02483)" />
      <path
         d="m 345.47216,654.36206 c 0,4.46314 -3.84421,8.08122 -8.5863,8.08122 -4.74208,0 -8.58629,-3.61808 -8.58629,-8.08122 0,-4.46313 3.84421,-8.08122 8.58629,-8.08122 4.74209,0 8.5863,3.61809 8.5863,8.08122 z"
         sodipodi:ry="8.0812206"
         sodipodi:rx="8.586297"
         sodipodi:cy="654.36206"
         sodipodi:cx="336.88586"
         id="path3091-8-0-9-5-5"
         style="fill:#000000;fill-opacity:1;fill-rule:evenodd;stroke:#000000;stroke-width:1;stroke-miterlimit:8.5;stroke-opacity:1;stroke-dasharray:none;display:inline"
         sodipodi:type="arc"
         transform="matrix(0.83786324,0,0,0.83786324,278.43296,28.02483)" />
      <path
         d="m 345.47216,654.36206 c 0,4.46314 -3.84421,8.08122 -8.5863,8.08122 -4.74208,0 -8.58629,-3.61808 -8.58629,-8.08122 0,-4.46313 3.84421,-8.08122 8.58629,-8.08122 4.74209,0 8.5863,3.61809 8.5863,8.08122 z"
         sodipodi:ry="8.0812206"
         sodipodi:rx="8.586297"
         sodipodi:cy="654.36206"
         sodipodi:cx="336.88586"
         id="path3091-8-0-9-0-4"
         style="color:#000000;fill:#000000;fill-opacity:1;fill-rule:evenodd;stroke:#000000;stroke-width:1;stroke-linecap:butt;stroke-linejoin:miter;stroke-miterlimit:8.5;stroke-opacity:1;stroke-dasharray:none;stroke-dashoffset:0;marker:none;visibility:visible;display:inline;overflow:visible;enable-background:accumulate"
         sodipodi:type="arc"
         transform="matrix(0.83786324,0,0,0.83786324,298.08433,28.02483)" />
      <path
         d="m 345.47216,654.36206 c 0,4.46314 -3.84421,8.08122 -8.5863,8.08122 -4.74208,0 -8.58629,-3.61808 -8.58629,-8.08122 0,-4.46313 3.84421,-8.08122 8.58629,-8.08122 4.74209,0 8.5863,3.61809 8.5863,8.08122 z"
         sodipodi:ry="8.0812206"
         sodipodi:rx="8.586297"
         sodipodi:cy="654.36206"
         sodipodi:cx="336.88586"
         id="path3091-8-0-9-0-4-5"
         style="color:#000000;fill:#000000;fill-opacity:1;fill-rule:evenodd;stroke:#000000;stroke-width:1;stroke-linecap:butt;stroke-linejoin:miter;stroke-miterlimit:8.5;stroke-opacity:1;stroke-dasharray:none;stroke-dashoffset:0;marker:none;visibility:visible;display:inline;overflow:visible;enable-background:accumulate"
         sodipodi:type="arc"
         transform="matrix(0.83786324,0,0,0.83786324,317.73569,28.02483)" />
    </g>
    <text
       xml:space="preserve"
       style="font-size:20px;font-style:normal;font-variant:normal;font-weight:normal;font-stretch:normal;line-height:125%;letter-spacing:0px;word-spacing:0px;fill:#000000;fill-opacity:1;stroke:none;font-family:FreeSerif;-inkscape-font-specification:FreeSerif"
       x="415"
       y="448.79077"
       id="text3826"
       sodipodi:linespacing="125%"><tspan
         sodipodi:role="line"
         id="tspan3828"
         x="415"
         y="448.79077">E2</tspan></text>
    <g
       id="g4029"
       transform="translate(32.857143,-2.8571429)">
      <rect
         ry="3.9721041"
         y="457.38235"
         x="257.5889"
         height="42.426407"
         width="87.88327"
         id="rect3025"
         style="fill:#ff0000;fill-opacity:1;fill-rule:evenodd;stroke:#000000;stroke-width:1;stroke-miterlimit:8.5;stroke-opacity:1;stroke-dasharray:none" />
      <path
         d="m 345.47216,654.36206 c 0,4.46314 -3.84421,8.08122 -8.5863,8.08122 -4.74208,0 -8.58629,-3.61808 -8.58629,-8.08122 0,-4.46313 3.84421,-8.08122 8.58629,-8.08122 4.74209,0 8.5863,3.61809 8.5863,8.08122 z"
         sodipodi:ry="8.0812206"
         sodipodi:rx="8.586297"
         sodipodi:cy="654.36206"
         sodipodi:cx="336.88586"
         id="path3091-1"
         style="fill:#0000ff;fill-opacity:1;fill-rule:evenodd;stroke:#000000;stroke-width:1;stroke-miterlimit:8.5;stroke-opacity:1;stroke-dasharray:none"
         sodipodi:type="arc"
         transform="translate(-8.5862872,-171.72591)" />
      <rect
         ry="3.9721041"
         y="438.18942"
         x="279.81226"
         height="10.101525"
         width="44.446712"
         id="rect3132"
         style="fill:#ffff00;fill-opacity:1;fill-rule:evenodd;stroke:#000000;stroke-width:1;stroke-miterlimit:8.5;stroke-opacity:1;stroke-dasharray:none" />
      <text
         sodipodi:linespacing="125%"
         id="text3826-6"
         y="448.4079"
         x="256.14911"
         style="font-size:20px;font-style:normal;font-variant:normal;font-weight:normal;font-stretch:normal;line-height:125%;letter-spacing:0px;word-spacing:0px;fill:#000000;fill-opacity:1;stroke:none;display:inline;font-family:FreeSerif;-inkscape-font-specification:FreeSerif"
         xml:space="preserve"><tspan
           id="tspan3851"
           y="448.4079"
           x="256.14911"
           sodipodi:role="line">E1</tspan></text>
    </g>
    <text
       xml:space="preserve"
       style="font-size:20px;font-style:normal;font-variant:normal;font-weight:normal;font-stretch:normal;line-height:125%;letter-spacing:0px;word-spacing:0px;fill:#000000;fill-opacity:1;stroke:none;display:inline;font-family:FreeSerif;-inkscape-font-specification:FreeSerif"
       x="260.43481"
       y="618.4079"
       id="text3826-8"
       sodipodi:linespacing="125%"><tspan
         sodipodi:role="line"
         x="260.43481"
         y="618.4079"
         id="tspan3864">X1</tspan></text>
    <text
       xml:space="preserve"
       style="font-size:20px;font-style:normal;font-variant:normal;font-weight:normal;font-stretch:normal;line-height:125%;letter-spacing:0px;word-spacing:0px;fill:#000000;fill-opacity:1;stroke:none;font-family:FreeSerif;-inkscape-font-specification:FreeSerif"
       x="361.42859"
       y="616.64789"
       id="text3868"
       sodipodi:linespacing="125%"><tspan
         sodipodi:role="line"
         id="tspan3870"
         x="361.42859"
         y="616.64789">Y1</tspan></text>
    <text
       xml:space="preserve"
       style="font-size:20px;font-style:normal;font-variant:normal;font-weight:normal;font-stretch:normal;line-height:125%;letter-spacing:0px;word-spacing:0px;fill:#000000;fill-opacity:1;stroke:none;font-family:FreeSerif;-inkscape-font-specification:FreeSerif"
       x="465"
       y="613.07648"
       id="text3872"
       sodipodi:linespacing="125%"><tspan
         sodipodi:role="line"
         x="465"
         y="613.07648"
         id="tspan3876">Z1</tspan></text>
    <g
       id="g3904">
      <g
         transform="translate(0,-10.714286)"
         id="g3770">
        <rect
           style="fill:#ffff00;fill-opacity:1;fill-rule:evenodd;stroke:#000000;stroke-width:1.04362392;stroke-miterlimit:8.5;stroke-opacity:1;stroke-dasharray:none"
           id="rect3173-4"
           width="15.824379"
           height="30.129549"
           x="516.86688"
           y="424.17947"
           ry="3.5901482" />
        <rect
           style="fill:#ffff00;fill-opacity:1;fill-rule:evenodd;stroke:#000000;stroke-width:1.04362392;stroke-miterlimit:8.5;stroke-opacity:1;stroke-dasharray:none;display:inline"
           id="rect3173-4-6"
           width="15.824379"
           height="30.129549"
           x="552.30469"
           y="424.11517"
           ry="3.5901482" />
        <rect
           style="fill:#ffff00;fill-opacity:1;fill-rule:evenodd;stroke:#000000;stroke-width:1.04362392;stroke-miterlimit:8.5;stroke-opacity:1;stroke-dasharray:none;display:inline"
           id="rect3173-4-0"
           width="15.824379"
           height="30.129549"
           x="588.89142"
           y="424.07245"
           ry="3.5901482" />
        <path
           transform="matrix(0.83786324,0,0,0.83786324,242.45514,-86.667776)"
           sodipodi:type="arc"
           style="fill:#000000;fill-opacity:1;fill-rule:evenodd;stroke:#000000;stroke-width:1;stroke-miterlimit:8.5;stroke-opacity:1;stroke-dasharray:none"
           id="path3091-8-0"
           sodipodi:cx="336.88586"
           sodipodi:cy="654.36206"
           sodipodi:rx="8.586297"
           sodipodi:ry="8.0812206"
           d="m 345.47216,654.36206 c 0,4.46314 -3.84421,8.08122 -8.5863,8.08122 -4.74208,0 -8.58629,-3.61808 -8.58629,-8.08122 0,-4.46313 3.84421,-8.08122 8.58629,-8.08122 4.74209,0 8.5863,3.61809 8.5863,8.08122 z" />
        <path
           transform="matrix(0.83786324,0,0,0.83786324,242.45514,-101.62055)"
           sodipodi:type="arc"
           style="fill:#0000ff;fill-opacity:1;fill-rule:evenodd;stroke:#000000;stroke-width:1;stroke-miterlimit:8.5;stroke-opacity:1;stroke-dasharray:none"
           id="path3091-8-0-3"
           sodipodi:cx="336.88586"
           sodipodi:cy="654.36206"
           sodipodi:rx="8.586297"
           sodipodi:ry="8.0812206"
           d="m 345.47216,654.36206 c 0,4.46314 -3.84421,8.08122 -8.5863,8.08122 -4.74208,0 -8.58629,-3.61808 -8.58629,-8.08122 0,-4.46313 3.84421,-8.08122 8.58629,-8.08122 4.74209,0 8.5863,3.61809 8.5863,8.08122 z" />
        <path
           transform="matrix(0.83786324,0,0,0.83786324,242.45514,-116.57333)"
           sodipodi:type="arc"
           style="fill:#0000ff;fill-opacity:1;fill-rule:evenodd;stroke:#000000;stroke-width:1;stroke-miterlimit:8.5;stroke-opacity:1;stroke-dasharray:none"
           id="path3091-8-0-5"
           sodipodi:cx="336.88586"
           sodipodi:cy="654.36206"
           sodipodi:rx="8.586297"
           sodipodi:ry="8.0812206"
           d="m 345.47216,654.36206 c 0,4.46314 -3.84421,8.08122 -8.5863,8.08122 -4.74208,0 -8.58629,-3.61808 -8.58629,-8.08122 0,-4.46313 3.84421,-8.08122 8.58629,-8.08122 4.74209,0 8.5863,3.61809 8.5863,8.08122 z" />
        <path
           transform="matrix(0.83786324,0,0,0.83786324,260.55136,-86.667771)"
           sodipodi:type="arc"
           style="fill:#000000;fill-opacity:1;fill-rule:evenodd;stroke:#000000;stroke-width:1;stroke-miterlimit:8.5;stroke-opacity:1;stroke-dasharray:none"
           id="path3091-8-0-9"
           sodipodi:cx="336.88586"
           sodipodi:cy="654.36206"
           sodipodi:rx="8.586297"
           sodipodi:ry="8.0812206"
           d="m 345.47216,654.36206 c 0,4.46314 -3.84421,8.08122 -8.5863,8.08122 -4.74208,0 -8.58629,-3.61808 -8.58629,-8.08122 0,-4.46313 3.84421,-8.08122 8.58629,-8.08122 4.74209,0 8.5863,3.61809 8.5863,8.08122 z" />
        <path
           transform="matrix(0.83786324,0,0,0.83786324,260.55136,-101.62055)"
           sodipodi:type="arc"
           style="fill:#0000ff;fill-opacity:1;fill-rule:evenodd;stroke:#000000;stroke-width:1;stroke-miterlimit:8.5;stroke-opacity:1;stroke-dasharray:none"
           id="path3091-8-0-3-4"
           sodipodi:cx="336.88586"
           sodipodi:cy="654.36206"
           sodipodi:rx="8.586297"
           sodipodi:ry="8.0812206"
           d="m 345.47216,654.36206 c 0,4.46314 -3.84421,8.08122 -8.5863,8.08122 -4.74208,0 -8.58629,-3.61808 -8.58629,-8.08122 0,-4.46313 3.84421,-8.08122 8.58629,-8.08122 4.74209,0 8.5863,3.61809 8.5863,8.08122 z" />
        <path
           transform="matrix(0.83786324,0,0,0.83786324,260.55136,-116.57333)"
           sodipodi:type="arc"
           style="fill:#0000ff;fill-opacity:1;fill-rule:evenodd;stroke:#000000;stroke-width:1;stroke-miterlimit:8.5;stroke-opacity:1;stroke-dasharray:none"
           id="path3091-8-0-5-0"
           sodipodi:cx="336.88586"
           sodipodi:cy="654.36206"
           sodipodi:rx="8.586297"
           sodipodi:ry="8.0812206"
           d="m 345.47216,654.36206 c 0,4.46314 -3.84421,8.08122 -8.5863,8.08122 -4.74208,0 -8.58629,-3.61808 -8.58629,-8.08122 0,-4.46313 3.84421,-8.08122 8.58629,-8.08122 4.74209,0 8.5863,3.61809 8.5863,8.08122 z" />
        <path
           transform="matrix(0.83786324,0,0,0.83786324,277.98428,-86.667778)"
           sodipodi:type="arc"
           style="fill:#000000;fill-opacity:1;fill-rule:evenodd;stroke:#000000;stroke-width:1;stroke-miterlimit:8.5;stroke-opacity:1;stroke-dasharray:none"
           id="path3091-8-0-09"
           sodipodi:cx="336.88586"
           sodipodi:cy="654.36206"
           sodipodi:rx="8.586297"
           sodipodi:ry="8.0812206"
           d="m 345.47216,654.36206 c 0,4.46314 -3.84421,8.08122 -8.5863,8.08122 -4.74208,0 -8.58629,-3.61808 -8.58629,-8.08122 0,-4.46313 3.84421,-8.08122 8.58629,-8.08122 4.74209,0 8.5863,3.61809 8.5863,8.08122 z" />
        <path
           transform="matrix(0.83786324,0,0,0.83786324,277.98428,-101.62056)"
           sodipodi:type="arc"
           style="fill:#0000ff;fill-opacity:1;fill-rule:evenodd;stroke:#000000;stroke-width:1;stroke-miterlimit:8.5;stroke-opacity:1;stroke-dasharray:none"
           id="path3091-8-0-3-3"
           sodipodi:cx="336.88586"
           sodipodi:cy="654.36206"
           sodipodi:rx="8.586297"
           sodipodi:ry="8.0812206"
           d="m 345.47216,654.36206 c 0,4.46314 -3.84421,8.08122 -8.5863,8.08122 -4.74208,0 -8.58629,-3.61808 -8.58629,-8.08122 0,-4.46313 3.84421,-8.08122 8.58629,-8.08122 4.74209,0 8.5863,3.61809 8.5863,8.08122 z" />
        <path
           transform="matrix(0.83786324,0,0,0.83786324,277.98428,-116.57334)"
           sodipodi:type="arc"
           style="fill:#0000ff;fill-opacity:1;fill-rule:evenodd;stroke:#000000;stroke-width:1;stroke-miterlimit:8.5;stroke-opacity:1;stroke-dasharray:none"
           id="path3091-8-0-5-4"
           sodipodi:cx="336.88586"
           sodipodi:cy="654.36206"
           sodipodi:rx="8.586297"
           sodipodi:ry="8.0812206"
           d="m 345.47216,654.36206 c 0,4.46314 -3.84421,8.08122 -8.5863,8.08122 -4.74208,0 -8.58629,-3.61808 -8.58629,-8.08122 0,-4.46313 3.84421,-8.08122 8.58629,-8.08122 4.74209,0 8.5863,3.61809 8.5863,8.08122 z" />
        <path
           transform="matrix(0.83786324,0,0,0.83786324,296.08049,-86.667793)"
           sodipodi:type="arc"
           style="fill:#000000;fill-opacity:1;fill-rule:evenodd;stroke:#000000;stroke-width:1;stroke-miterlimit:8.5;stroke-opacity:1;stroke-dasharray:none"
           id="path3091-8-0-9-5"
           sodipodi:cx="336.88586"
           sodipodi:cy="654.36206"
           sodipodi:rx="8.586297"
           sodipodi:ry="8.0812206"
           d="m 345.47216,654.36206 c 0,4.46314 -3.84421,8.08122 -8.5863,8.08122 -4.74208,0 -8.58629,-3.61808 -8.58629,-8.08122 0,-4.46313 3.84421,-8.08122 8.58629,-8.08122 4.74209,0 8.5863,3.61809 8.5863,8.08122 z" />
        <path
           transform="matrix(0.83786324,0,0,0.83786324,296.08049,-101.62053)"
           sodipodi:type="arc"
           style="fill:#0000ff;fill-opacity:1;fill-rule:evenodd;stroke:#000000;stroke-width:1;stroke-miterlimit:8.5;stroke-opacity:1;stroke-dasharray:none"
           id="path3091-8-0-3-4-0"
           sodipodi:cx="336.88586"
           sodipodi:cy="654.36206"
           sodipodi:rx="8.586297"
           sodipodi:ry="8.0812206"
           d="m 345.47216,654.36206 c 0,4.46314 -3.84421,8.08122 -8.5863,8.08122 -4.74208,0 -8.58629,-3.61808 -8.58629,-8.08122 0,-4.46313 3.84421,-8.08122 8.58629,-8.08122 4.74209,0 8.5863,3.61809 8.5863,8.08122 z" />
        <path
           transform="matrix(0.83786324,0,0,0.83786324,296.08049,-116.57331)"
           sodipodi:type="arc"
           style="fill:#0000ff;fill-opacity:1;fill-rule:evenodd;stroke:#000000;stroke-width:1;stroke-miterlimit:8.5;stroke-opacity:1;stroke-dasharray:none"
           id="path3091-8-0-5-0-7"
           sodipodi:cx="336.88586"
           sodipodi:cy="654.36206"
           sodipodi:rx="8.586297"
           sodipodi:ry="8.0812206"
           d="m 345.47216,654.36206 c 0,4.46314 -3.84421,8.08122 -8.5863,8.08122 -4.74208,0 -8.58629,-3.61808 -8.58629,-8.08122 0,-4.46313 3.84421,-8.08122 8.58629,-8.08122 4.74209,0 8.5863,3.61809 8.5863,8.08122 z" />
        <path
           transform="matrix(0.83786324,0,0,0.83786324,314.6832,-86.667775)"
           sodipodi:type="arc"
           style="fill:#000000;fill-opacity:1;fill-rule:evenodd;stroke:#000000;stroke-width:1;stroke-miterlimit:8.5;stroke-opacity:1;stroke-dasharray:none"
           id="path3091-8-0-9-0"
           sodipodi:cx="336.88586"
           sodipodi:cy="654.36206"
           sodipodi:rx="8.586297"
           sodipodi:ry="8.0812206"
           d="m 345.47216,654.36206 c 0,4.46314 -3.84421,8.08122 -8.5863,8.08122 -4.74208,0 -8.58629,-3.61808 -8.58629,-8.08122 0,-4.46313 3.84421,-8.08122 8.58629,-8.08122 4.74209,0 8.5863,3.61809 8.5863,8.08122 z" />
        <path
           transform="matrix(0.83786324,0,0,0.83786324,314.6832,-101.62055)"
           sodipodi:type="arc"
           style="fill:#0000ff;fill-opacity:1;fill-rule:evenodd;stroke:#000000;stroke-width:1;stroke-miterlimit:8.5;stroke-opacity:1;stroke-dasharray:none"
           id="path3091-8-0-3-4-3"
           sodipodi:cx="336.88586"
           sodipodi:cy="654.36206"
           sodipodi:rx="8.586297"
           sodipodi:ry="8.0812206"
           d="m 345.47216,654.36206 c 0,4.46314 -3.84421,8.08122 -8.5863,8.08122 -4.74208,0 -8.58629,-3.61808 -8.58629,-8.08122 0,-4.46313 3.84421,-8.08122 8.58629,-8.08122 4.74209,0 8.5863,3.61809 8.5863,8.08122 z" />
        <path
           transform="matrix(0.83786324,0,0,0.83786324,314.6832,-116.57333)"
           sodipodi:type="arc"
           style="fill:#0000ff;fill-opacity:1;fill-rule:evenodd;stroke:#000000;stroke-width:1;stroke-miterlimit:8.5;stroke-opacity:1;stroke-dasharray:none"
           id="path3091-8-0-5-0-8"
           sodipodi:cx="336.88586"
           sodipodi:cy="654.36206"
           sodipodi:rx="8.586297"
           sodipodi:ry="8.0812206"
           d="m 345.47216,654.36206 c 0,4.46314 -3.84421,8.08122 -8.5863,8.08122 -4.74208,0 -8.58629,-3.61808 -8.58629,-8.08122 0,-4.46313 3.84421,-8.08122 8.58629,-8.08122 4.74209,0 8.5863,3.61809 8.5863,8.08122 z" />
      </g>
      <text
         sodipodi:linespacing="125%"
         id="text3888"
         y="409.505"
         x="519.28571"
         style="font-size:20px;font-style:normal;font-variant:normal;font-weight:normal;font-stretch:normal;line-height:125%;letter-spacing:0px;word-spacing:0px;fill:#000000;fill-opacity:1;stroke:none;font-family:FreeSerif;-inkscape-font-specification:FreeSerif"
         xml:space="preserve"><tspan
           y="409.505"
           x="519.28571"
           id="tspan3890"
           sodipodi:role="line">X</tspan></text>
      <text
         sodipodi:linespacing="125%"
         id="text3892"
         y="409.50504"
         x="553.57147"
         style="font-size:20px;font-style:normal;font-variant:normal;font-weight:normal;font-stretch:normal;line-height:125%;letter-spacing:0px;word-spacing:0px;fill:#000000;fill-opacity:1;stroke:none;font-family:FreeSerif;-inkscape-font-specification:FreeSerif"
         xml:space="preserve"><tspan
           y="409.50504"
           x="553.57147"
           id="tspan3894"
           sodipodi:role="line">Y</tspan></text>
      <text
         sodipodi:linespacing="125%"
         id="text3896"
         y="409.505"
         x="590"
         style="font-size:20px;font-style:normal;font-variant:normal;font-weight:normal;font-stretch:normal;line-height:125%;letter-spacing:0px;word-spacing:0px;fill:#000000;fill-opacity:1;stroke:none;font-family:FreeSerif;-inkscape-font-specification:FreeSerif"
         xml:space="preserve"><tspan
           y="409.505"
           x="590"
           id="tspan3898"
           sodipodi:role="line">Z</tspan></text>
      <text
         sodipodi:linespacing="125%"
         id="text3900"
         y="392.36218"
         x="536.42853"
         style="font-size:12px;font-style:normal;font-variant:normal;font-weight:normal;font-stretch:normal;line-height:125%;letter-spacing:0px;word-spacing:0px;fill:#000000;fill-opacity:1;stroke:none;font-family:FreeSerif;-inkscape-font-specification:FreeSerif"
         xml:space="preserve"><tspan
           y="392.36218"
           x="536.42853"
           id="tspan3902"
           sodipodi:role="line">Endstops:</tspan></text>
    </g>
    <text
       xml:space="preserve"
       style="font-size:10px;font-style:normal;font-variant:normal;font-weight:normal;font-stretch:normal;line-height:125%;letter-spacing:0px;word-spacing:0px;fill:#000000;fill-opacity:1;stroke:none;font-family:FreeSerif;-inkscape-font-specification:FreeSerif"
       x="549.05548"
       y="475.81104"
       id="text3933"
       sodipodi:linespacing="125%"><tspan
         sodipodi:role="line"
         id="tspan3935"
         x="549.05548"
         y="475.81104">Temp:</tspan></text>
    <text
       xml:space="preserve"
       style="font-size:20px;font-style:normal;font-variant:normal;font-weight:normal;font-stretch:normal;line-height:125%;letter-spacing:0px;word-spacing:0px;fill:#000000;fill-opacity:1;stroke:none;font-family:FreeSerif;-inkscape-font-specification:FreeSerif"
       x="519.28571"
       y="497.00507"
       id="text3937"
       sodipodi:linespacing="125%"><tspan
         sodipodi:role="line"
         id="tspan3939"
         x="519.28571"
         y="497.00507">T1</tspan></text>
    <text
       xml:space="preserve"
       style="font-size:20px;font-style:normal;font-variant:normal;font-weight:normal;font-stretch:normal;line-height:125%;letter-spacing:0px;word-spacing:0px;fill:#000000;fill-opacity:1;stroke:none;font-family:FreeSerif;-inkscape-font-specification:FreeSerif"
       x="546.05347"
       y="496.29074"
       id="text3941"
       sodipodi:linespacing="125%"><tspan
         sodipodi:role="line"
         id="tspan3943"
         x="546.05347"
         y="496.29074">Thb</tspan></text>
    <text
       xml:space="preserve"
       style="font-size:20px;font-style:normal;font-variant:normal;font-weight:normal;font-stretch:normal;line-height:125%;letter-spacing:0px;word-spacing:0px;fill:#000000;fill-opacity:1;stroke:none;font-family:FreeSerif;-inkscape-font-specification:FreeSerif"
       x="584.19904"
       y="496.69125"
       id="text3945"
       sodipodi:linespacing="125%"><tspan
         sodipodi:role="line"
         id="tspan3947"
         x="584.19904"
         y="496.69125">T2</tspan></text>
    <rect
       style="color:#000000;fill:none;stroke:#000000;stroke-width:0.83786327;stroke-linecap:butt;stroke-linejoin:miter;stroke-miterlimit:8.5;stroke-opacity:1;stroke-dasharray:none;stroke-dashoffset:0;marker:none;visibility:visible;display:inline;overflow:visible;enable-background:accumulate"
       id="rect3949"
       width="100.71429"
       height="82.5"
       x="510.35715"
       y="381.64789"
       ry="4.2376852" />
    <rect
       style="color:#000000;fill:none;stroke:#000000;stroke-width:0.64865786;stroke-linecap:butt;stroke-linejoin:miter;stroke-miterlimit:8.5;stroke-opacity:1;stroke-dasharray:none;stroke-dashoffset:0;marker:none;visibility:visible;display:inline;overflow:visible;enable-background:accumulate"
       id="rect3949-1"
       width="100.9035"
       height="49.354172"
       x="510.26254"
       y="467.44614"
       ry="2.5351205" />
    <text
       xml:space="preserve"
       style="font-size:20px;font-style:normal;font-variant:normal;font-weight:normal;font-stretch:normal;line-height:125%;letter-spacing:0px;word-spacing:0px;fill:#000000;fill-opacity:1;stroke:none;font-family:FreeSerif;-inkscape-font-specification:FreeSerif"
       x="192"
       y="402.93362"
       id="text3969"
       sodipodi:linespacing="125%"><tspan
         sodipodi:role="line"
         id="tspan3971"
         x="192"
         y="402.93362">-</tspan></text>
    <text
       xml:space="preserve"
       style="font-size:20px;font-style:normal;font-variant:normal;font-weight:normal;font-stretch:normal;line-height:125%;letter-spacing:0px;word-spacing:0px;fill:#000000;fill-opacity:1;stroke:none;display:inline;font-family:FreeSerif;-inkscape-font-specification:FreeSerif"
       x="191.04572"
       y="464.01505"
       id="text3969-2"
       sodipodi:linespacing="125%"><tspan
         sodipodi:role="line"
         id="tspan3971-7"
         x="191.04572"
         y="464.01505">-</tspan></text>
    <text
       xml:space="preserve"
       style="font-size:20px;font-style:normal;font-variant:normal;font-weight:normal;font-stretch:normal;line-height:125%;letter-spacing:0px;word-spacing:0px;fill:#000000;fill-opacity:1;stroke:none;display:inline;font-family:FreeSerif;-inkscape-font-specification:FreeSerif"
       x="191.04572"
       y="526.1579"
       id="text3969-9"
       sodipodi:linespacing="125%"><tspan
         sodipodi:role="line"
         id="tspan3971-4"
         x="191.04572"
         y="526.1579">-</tspan></text>
    <text
       xml:space="preserve"
       style="font-size:112.67233276px;font-style:normal;font-variant:normal;font-weight:normal;font-stretch:normal;line-height:125%;letter-spacing:0px;word-spacing:0px;fill:#000000;fill-opacity:1;stroke:none;display:inline;font-family:FreeSerif;-inkscape-font-specification:FreeSerif"
       x="211.48393"
       y="-537.41364"
       id="text3969-4"
       sodipodi:linespacing="125%"
       transform="scale(0.90640014,-1.1032655)"><tspan
         sodipodi:role="line"
         id="tspan3971-9"
         x="211.48393"
         y="-537.41364">-</tspan></text>
    <text
       xml:space="preserve"
       style="font-size:20px;font-style:normal;font-variant:normal;font-weight:normal;font-stretch:normal;line-height:125%;letter-spacing:0px;word-spacing:0px;fill:#000000;fill-opacity:1;stroke:none;font-family:FreeSerif;-inkscape-font-specification:FreeSerif"
       x="209.61005"
       y="432.6655"
       id="text4021"
       sodipodi:linespacing="125%"><tspan
         sodipodi:role="line"
         x="209.61005"
         y="432.6655"
         id="tspan4025">E1heat</tspan></text>
    <text
       xml:space="preserve"
       style="font-size:20px;font-style:normal;font-variant:normal;font-weight:normal;font-stretch:normal;line-height:125%;letter-spacing:0px;word-spacing:0px;fill:#000000;fill-opacity:1;stroke:none;display:inline;font-family:FreeSerif;-inkscape-font-specification:FreeSerif"
       x="210.12006"
       y="493.83966"
       id="text4021-6"
       sodipodi:linespacing="125%"><tspan
         sodipodi:role="line"
         x="210.12006"
         y="493.83966"
         id="tspan4025-9">E2heat</tspan></text>
    <text
       xml:space="preserve"
       style="font-size:20px;font-style:normal;font-variant:normal;font-weight:normal;font-stretch:normal;line-height:125%;letter-spacing:0px;word-spacing:0px;fill:#000000;fill-opacity:1;stroke:none;font-family:FreeSerif;-inkscape-font-specification:FreeSerif"
       x="211.28468"
       y="551.8421"
       id="text4057"
       sodipodi:linespacing="125%"><tspan
         sodipodi:role="line"
         id="tspan4059"
         x="211.28468"
         y="551.8421">HBheat</tspan></text>
    <text
       xml:space="preserve"
       style="font-size:20px;font-style:normal;font-variant:normal;font-weight:normal;font-stretch:normal;line-height:125%;letter-spacing:0px;word-spacing:0px;fill:#000000;fill-opacity:1;stroke:none;font-family:FreeSerif;-inkscape-font-specification:FreeSerif"
       x="208.48766"
       y="580.70081"
       id="text4061"
       sodipodi:linespacing="125%"><tspan
         sodipodi:role="line"
         id="tspan4063"
         x="208.48766"
         y="580.70081"
         style="text-align:center;text-anchor:middle">heat</tspan><tspan
         sodipodi:role="line"
         x="208.48766"
         y="605.70081"
         id="tspan4065"
         style="text-align:center;text-anchor:middle">12V11A</tspan></text>
    <text
       xml:space="preserve"
       style="font-size:112.67233276px;font-style:normal;font-variant:normal;font-weight:normal;font-stretch:normal;line-height:125%;letter-spacing:0px;word-spacing:0px;fill:#000000;fill-opacity:1;stroke:none;display:inline;font-family:FreeSerif;-inkscape-font-specification:FreeSerif"
       x="215.51189"
       y="-605.86945"
       id="text3969-4-7"
       sodipodi:linespacing="125%"
       transform="scale(0.90640014,-1.1032655)"><tspan
         sodipodi:role="line"
         id="tspan3971-9-8"
         x="215.51189"
         y="-605.86945">-</tspan></text>
    <text
       xml:space="preserve"
       style="font-size:20px;font-style:normal;font-variant:normal;font-weight:normal;font-stretch:normal;line-height:125%;letter-spacing:0px;word-spacing:0px;fill:#000000;fill-opacity:1;stroke:none;display:inline;font-family:FreeSerif;-inkscape-font-specification:FreeSerif"
       x="208.13861"
       y="650.22571"
       id="text4061-2"
       sodipodi:linespacing="125%"><tspan
         sodipodi:role="line"
         id="tspan4063-1"
         x="208.13861"
         y="650.22571"
         style="text-align:center;text-anchor:middle">move</tspan><tspan
         sodipodi:role="line"
         x="208.13861"
         y="675.22571"
         id="tspan4065-5"
         style="text-align:center;text-anchor:middle">12V5A</tspan></text>
    <rect
       style="color:#000000;fill:none;stroke:#000000;stroke-width:0.84213233;stroke-linecap:butt;stroke-linejoin:miter;stroke-miterlimit:8.5;stroke-opacity:1;stroke-dasharray:none;stroke-dashoffset:0;marker:none;visibility:visible;display:inline;overflow:visible;enable-background:accumulate"
       id="rect4116"
       width="67.410728"
       height="0.50080723"
       x="175.32225"
       y="633.151"
       ry="0.25040361" />
    <rect
       style="color:#000000;fill:none;stroke:#000000;stroke-width:0.84450132;stroke-linecap:butt;stroke-linejoin:miter;stroke-miterlimit:8.5;stroke-opacity:1;stroke-dasharray:none;stroke-dashoffset:0;marker:none;visibility:visible;display:inline;overflow:visible;enable-background:accumulate"
       id="rect4116-6"
       width="68.11274"
       height="0.49843821"
       x="174.90002"
       y="681.38702"
       ry="0.2492191" />
    <rect
       style="color:#000000;fill:none;stroke:#000000;stroke-width:0.84378225;stroke-linecap:butt;stroke-linejoin:miter;stroke-miterlimit:8.5;stroke-opacity:1;stroke-dasharray:none;stroke-dashoffset:0;marker:none;visibility:visible;display:inline;overflow:visible;enable-background:accumulate"
       id="rect4116-3"
       width="67.898834"
       height="0.49915728"
       x="174.97899"
       y="610.17084"
       ry="0.24957864" />
  </g>
  <g
     inkscape:groupmode="layer"
     id="layer2"
     inkscape:label="Layer" />
</svg>
